<svg width="86" height="88" viewBox="0 0 86 88" fill="none" xmlns="http://www.w3.org/2000/svg">
<path d="M16.5625 27.7227C21.8359 27.7227 26.1602 23.4336 26.1602 18.125C26.1602 12.8164 21.8711 8.52734 16.5625 8.52734C11.2539 8.52734 7 12.8516 7 18.125C7 23.3984 11.2891 27.7227 16.5625 27.7227ZM16.5625 12.1836C19.832 12.1836 22.5391 14.8555 22.5391 18.1602C22.5391 21.4648 19.8672 24.1367 16.5625 24.1367C13.2578 24.1367 10.5859 21.4648 10.5859 18.1602C10.5859 14.8555 13.293 12.1836 16.5625 12.1836Z" fill="black"/>
<path d="M27.918 38.8321C26.9336 38.7617 26.0547 39.5352 25.9844 40.5196L24.5078 61.5782C24.5078 61.6485 24.4727 61.6836 24.4727 61.7539L23.1367 82.25C23.1016 83.0235 22.4336 83.6563 21.6602 83.6563H11.4648C10.6914 83.6563 10.0234 83.0586 9.98828 82.25L8.65234 61.7539C8.61719 61.0157 8.08984 60.3477 7.38672 60.1367C7 60.0313 5.875 59.6797 5.69922 59.5039C5.55859 59.293 5.48828 58.168 5.45313 57.6055L4.22266 35.8789V35.8438C6.50781 35.1758 8.75781 34.4375 11.043 33.6992C12.0625 34.8946 13.082 36.0547 14.1367 37.25L15.2266 38.4805C15.5781 38.8672 16.0703 39.1133 16.5977 39.1133C17.125 39.1133 17.6172 38.9024 17.9688 38.4805L19.2344 37.0391C20.2539 35.8789 21.2031 34.7891 22.1523 33.6641L37.9023 37.2149C38.1484 37.2852 38.4297 37.2852 38.6758 37.2149L52.8789 34.2969C53.8633 34.086 54.4961 33.1367 54.2852 32.1524C54.0742 31.168 53.125 30.5352 52.1406 30.7461L38.3242 33.5938L22.7852 30.0782C22.7148 30.043 22.6094 30.043 22.5391 30.043C22.082 30.0078 20.5352 29.9727 19.5859 31.0977C18.6016 32.2578 17.6172 33.3828 16.5977 34.543C15.5781 33.3828 14.5938 32.2578 13.6094 31.0977C12.6953 30.043 11.5352 29.6914 10.2695 30.1133C7.84375 30.9219 5.41797 31.6953 2.99219 32.4336C1.44531 32.9258 0.601562 34.086 0.601562 35.668C0.601562 35.7735 0.601562 36.0547 0.601562 36.0899L1.79688 57.5352L1.83203 57.8867C2.04297 61.0157 2.5 62.211 5.13672 63.2305L6.40234 82.5313C6.57812 85.2032 8.82813 87.3125 11.5 87.3125H21.6953C24.3672 87.3125 26.6172 85.2032 26.793 82.5313L28.1289 62.211C28.1289 62.1407 28.1289 62.1055 28.1641 62.0352L29.6406 40.8008C29.6406 39.7813 28.9023 38.9024 27.918 38.8321Z" fill="black"/>
<path d="M83.6055 0.6875H16.5625C15.5781 0.6875 14.7344 1.49609 14.7344 2.51562C14.7344 3.53516 15.543 4.34375 16.5625 4.34375H81.7774V51.4531H33.6836C32.6992 51.4531 31.8555 52.2617 31.8555 53.2812C31.8555 54.2656 32.6641 55.1094 33.6836 55.1094H83.6055C84.5898 55.1094 85.4336 54.3008 85.4336 53.2812V2.51562C85.4336 1.53125 84.625 0.6875 83.6055 0.6875Z" fill="black"/>
</svg>
