<svg width="94" height="94" viewBox="0 0 94 94" fill="none" xmlns="http://www.w3.org/2000/svg">
<path d="M53.9555 66.3715L47.9088 70.2773C47.6322 70.4559 47.3161 70.5453 47 70.5453C46.6839 70.5453 46.3678 70.4559 46.0912 70.2773L40.0445 66.3715L9.97473 85.7938L0.827087 91.7028C1.52228 92.9041 2.8202 93.713 4.30801 93.713H89.6917C91.1795 93.713 92.4776 92.9041 93.1726 91.7028L84.025 85.7938L53.9555 66.3715Z" fill="#231F20"/>
<path d="M11.0665 43.6656L47 66.8757L53.696 62.5515C52.9697 62.7673 52.2113 62.8785 51.4501 62.8785C49.3839 62.8785 47.4301 62.0865 45.9467 60.6487L36.544 51.53C35.9584 51.7458 35.338 51.8583 34.7135 51.8583C33.3722 51.8583 32.1032 51.3505 31.1424 50.4728C29.9552 50.9699 28.6768 51.2299 27.3904 51.2299C25.6256 51.2299 23.9292 50.7515 22.4592 49.8872C20.9892 49.0229 19.7471 47.7727 18.8908 46.2303L16.5498 42.0133C15.7217 40.5246 15.309 38.8831 15.3237 37.2255H4.30758C3.49688 37.2255 2.74247 37.4667 2.10999 37.8808L3.17663 38.5695L11.0665 43.6656Z" fill="#231F20"/>
<path d="M76.0968 41.0405C75.7283 42.3309 74.8787 43.4002 73.7049 44.0528C72.9598 44.4655 72.117 44.6853 71.2674 44.6853C70.7006 44.6853 70.1472 44.5902 69.6272 44.4093C69.1073 44.2297 68.6196 43.9657 68.1867 43.6307L64.7617 44.3181L61.3152 45.0109L54.0337 46.4729L56.9522 49.3029C58.7652 51.061 59.6161 53.5079 59.2838 56.0123C59.0788 57.5667 58.4396 58.9804 57.456 60.1221L82.9334 43.6656L90.8234 38.5695L91.89 37.8808C91.2575 37.4667 90.5031 37.2255 89.6924 37.2255H75.6613C76.3098 38.3967 76.4653 39.7514 76.0968 41.0405Z" fill="#231F20"/>
<path d="M93.6762 40.7149L89.1082 43.6656L57.042 64.378L85.8426 82.9798L93.7124 88.0625V41.2455C93.7124 41.066 93.699 40.8878 93.6762 40.7149Z" fill="#231F20"/>
<path d="M36.958 64.378L4.89184 43.6656L0.323778 40.7149C0.300998 40.8878 0.287598 41.066 0.287598 41.2455V88.0625L8.15742 82.9798L36.958 64.378Z" fill="#231F20"/>
<path d="M44.644 8.095L63.0548 41.2442L69.4029 39.9692C69.4384 39.9621 69.4718 39.9508 69.5064 39.9417L69.8013 40.4726C70.2505 41.2813 71.2702 41.5728 72.0789 41.1236C72.8876 40.6744 73.179 39.6548 72.73 38.846L66.7509 28.0804C71.2079 25.605 72.8201 19.9653 70.3447 15.5081C67.8693 11.0512 62.2295 9.43902 57.7724 11.9144L51.7933 1.14884C51.3441 0.340155 50.3244 0.0487045 49.5157 0.497873C48.707 0.94704 48.4156 1.96665 48.8647 2.77547L49.1595 3.30638C49.1337 3.33103 49.1065 3.35328 49.0817 3.37968L44.644 8.095ZM67.4158 17.1349C68.9944 19.9771 67.9663 23.5735 65.1242 25.152L59.3988 14.8432C62.2409 13.2647 65.8373 14.2928 67.4158 17.1349Z" fill="#231F20"/>
<path d="M21.8201 44.6044C23.5268 47.6776 27.4017 48.7852 30.4749 47.0784L32.232 46.1025L33.0127 47.5083C33.5337 48.4464 34.7166 48.7845 35.6548 48.2635L35.6749 48.2524C36.6401 47.7164 37.832 47.9577 38.5563 48.791C38.6419 48.8894 38.7327 48.9855 38.8287 49.0785L48.2792 58.2443C49.7199 59.6415 51.9055 59.9308 53.6599 58.9563C56.3302 57.4734 56.8118 53.8338 54.6192 51.7072L47.1292 44.4429L59.6073 41.9367L42.2342 10.6558L29.4201 24.2718C29.2191 24.4854 29.0771 24.737 28.9944 25.0046C28.9194 25.0348 28.845 25.0681 28.7725 25.1085L24.2038 27.6459C23.2657 28.1669 22.9276 29.3498 23.4486 30.2878L23.7088 30.7564L21.9516 31.7324C18.8785 33.4391 17.7709 37.314 19.4776 40.3871L21.8201 44.6044ZM23.5784 34.6609L25.3356 33.685L30.6055 43.1737L28.8484 44.1496C27.395 44.9568 25.556 44.4311 24.7488 42.9778L22.4066 38.7605C21.5992 37.3072 22.125 35.4681 23.5784 34.6609Z" fill="#231F20"/>
<path d="M69.9872 10.2391C70.2759 10.436 70.6042 10.5302 70.9292 10.5302C71.4644 10.5302 71.9903 10.2743 72.3146 9.79859L76.3346 3.90259C76.8557 3.13826 76.6586 2.09627 75.8943 1.57515C75.1301 1.05389 74.088 1.251 73.5669 2.01547L69.5469 7.91147C69.0257 8.67581 69.2228 9.71793 69.9872 10.2391Z" fill="#231F20"/>
<path d="M81.0716 25.4904C81.3114 25.6097 81.5661 25.6663 81.8168 25.6663C82.4323 25.6663 83.0247 25.3257 83.3176 24.7373C83.7298 23.9091 83.3926 22.9036 82.5645 22.4913L76.1762 19.3113C75.348 18.899 74.3424 19.2363 73.9302 20.0644C73.5181 20.8925 73.8552 21.8981 74.6833 22.3104L81.0716 25.4904Z" fill="#231F20"/>
<path d="M72.6842 15.655C73.0084 16.1304 73.5342 16.3863 74.0694 16.3863C74.3945 16.3863 74.723 16.292 75.0117 16.095L86.904 7.984C87.6682 7.46274 87.8651 6.42076 87.3439 5.65642C86.8226 4.89222 85.7805 4.6951 85.0163 5.2165L73.1241 13.3275C72.3599 13.8486 72.1629 14.8908 72.6842 15.655Z" fill="#231F20"/>
</svg>
