<svg width="102" height="112" viewBox="0 0 102 112" fill="none" xmlns="http://www.w3.org/2000/svg">
<path d="M30.7774 69.6155C29.3825 69.8309 28.0091 69.9507 26.5966 69.9507C12.0602 69.9507 0.275879 58.1664 0.275879 43.63C0.275879 32.15 7.76089 21.9613 18.7036 18.5238C22.1412 7.58102 32.3299 0.0960083 43.8099 0.0960083C50.1032 0.0960083 56.1933 2.35942 60.9652 6.45672C64.571 4.92444 68.5323 4.11252 72.4492 4.11252C88.6176 4.11252 101.724 17.219 101.724 33.3874C101.724 36.8169 101.114 40.2504 99.936 43.4698C100.22 43.9074 100.384 44.4298 100.384 44.9899V87.5787C100.384 89.1217 99.1335 90.3739 97.5891 90.3739H68.3762V97.2059H79.5761C81.1205 97.2059 82.3713 98.4581 82.3713 100.001V109.109C82.3713 110.652 81.1205 111.904 79.5761 111.904H51.5857C50.0413 111.904 48.7904 110.652 48.7904 109.109V100.001C48.7904 98.4581 50.0413 97.2059 51.5857 97.2059H62.7856V90.3739H33.5727C32.0283 90.3739 30.7774 89.1217 30.7774 87.5787V69.6155ZM53.0924 62.3338C55.2737 62.3338 57.0429 64.1017 57.0429 66.2843C57.0429 68.4656 55.2737 70.2348 53.0924 70.2348C50.9098 70.2348 49.1419 68.4656 49.1419 66.2843C49.1419 64.1017 50.9098 62.3338 53.0924 62.3338ZM78.0694 62.3338C80.252 62.3338 82.0199 64.1017 82.0199 66.2843C82.0199 68.4656 80.252 70.2348 78.0694 70.2348C75.8881 70.2348 74.1188 68.4656 74.1188 66.2843C74.1188 64.1017 75.8881 62.3338 78.0694 62.3338ZM65.5809 62.3338C67.7635 62.3338 69.5314 64.1017 69.5314 66.2843C69.5314 68.4656 67.7635 70.2348 65.5809 70.2348C63.3996 70.2348 61.6304 68.4656 61.6304 66.2843C61.6304 64.1017 63.3996 62.3338 65.5809 62.3338ZM76.7808 102.796H54.381V106.313H76.7808V102.796ZM94.4451 42.1947C95.5761 39.3792 96.1336 36.4223 96.1336 33.3874C96.1336 20.3065 85.5302 9.70305 72.4492 9.70305C68.6966 9.70305 65.1662 10.5298 61.8135 12.2183C60.7484 12.8174 59.3737 12.6639 58.4662 11.7564C54.5439 7.83416 49.3573 5.68654 43.8099 5.68654C34.2823 5.68654 25.9732 12.1604 23.6815 21.416C23.4513 22.4056 22.6851 23.2337 21.6309 23.4936C12.3577 25.7718 5.86641 34.0889 5.86641 43.63C5.86641 55.079 15.1476 64.3588 26.5966 64.3588C28.005 64.3588 29.3959 64.2215 30.7774 63.9428V44.9899C30.7774 43.4469 32.0283 42.1947 33.5727 42.1947H94.4451ZM94.7938 47.7852H36.3679V84.7834H94.7938V47.7852Z" fill="black"/>
</svg>
