<svg width="139" height="106" viewBox="0 0 139 106" fill="none" xmlns="http://www.w3.org/2000/svg">
<path d="M97.14 84.6V94.184C97.14 100.434 92.074 105.5 85.824 105.5H48.664C42.414 105.5 37.348 100.434 37.348 94.184V11.83C37.348 5.58004 42.414 0.514038 48.664 0.514038H85.823C92.073 0.514038 97.139 5.58004 97.139 11.83V33.86" stroke="black" stroke-miterlimit="10" stroke-linecap="round" stroke-linejoin="round"/>
<path d="M37.348 12V11.83C37.348 5.58004 42.414 0.514038 48.664 0.514038H85.823C92.073 0.514038 97.139 5.58004 97.139 11.83V12H37.348Z" stroke="black" stroke-miterlimit="10" stroke-linecap="round" stroke-linejoin="round"/>
<path opacity="0.3" d="M37.182 12V11.83C37.182 5.58004 42.248 0.514038 48.498 0.514038H85.657C91.907 0.514038 96.973 5.58004 96.973 11.83V12H37.182Z" fill="black"/>
<path d="M97.14 94.015V94.185C97.14 100.435 92.074 105.501 85.824 105.501H48.664C42.414 105.501 37.348 100.435 37.348 94.185V94.015H97.14Z" stroke="black" stroke-miterlimit="10" stroke-linecap="round" stroke-linejoin="round"/>
<path opacity="0.3" d="M97.14 94.015V94.185C97.14 100.435 92.074 105.501 85.824 105.501H48.664C42.414 105.501 37.348 100.435 37.348 94.185V94.015H97.14Z" fill="black"/>
<path d="M61.943 100.374H72.545" stroke="black" stroke-miterlimit="10" stroke-linecap="round" stroke-linejoin="round"/>
<path d="M61.943 6.25708H72.545" stroke="black" stroke-miterlimit="10" stroke-linecap="round" stroke-linejoin="round"/>
<path d="M7.528 30.525V41.655" stroke="black" stroke-miterlimit="10" stroke-linecap="round" stroke-linejoin="round"/>
<path d="M13.757 36.09H1.298" stroke="black" stroke-miterlimit="10" stroke-linecap="round" stroke-linejoin="round"/>
<path d="M21.194 57.8151V65.2741" stroke="black" stroke-miterlimit="10" stroke-linecap="round" stroke-linejoin="round"/>
<path d="M24.924 61.5441H17.465" stroke="black" stroke-miterlimit="10" stroke-linecap="round" stroke-linejoin="round"/>
<path d="M133.544 53.38L137.484 51.671L133.456 42.384L128.924 44.349C127.248 42.133 125.452 40.482 123.499 39.177L125.239 34.342L115.672 30.478L113.859 35.041C111.056 34.579 108.014 34.606 105.291 35.111L103.543 31.082L94.875 34.841L96.623 38.87C93.155 41.05 91.834 42.854 90.255 45.217L85.424 43.475L81.562 53.041L86.32 55.301C85.938 57.618 85.866 60.081 86.339 62.818L81.448 64.939L85.476 74.226L89.776 72.361C91.595 75.25 93.87 77.367 96.632 79.213L94.726 83.665L104.21 87.337L106.421 82.488C109.224 82.95 111.425 83.174 115.387 82.132L117.432 86.847L126.1 83.088L124.055 78.373C126.285 76.73 128.405 74.579 129.984 72.217L134.595 74.054L138.347 64.536L133.866 63.065C134.407 59.787 134.411 56.682 133.544 53.38ZM115.738 72.764C108.039 76.103 99.092 72.569 95.753 64.87C92.414 57.171 95.948 48.224 103.647 44.885C111.346 41.546 120.293 45.08 123.632 52.779C126.971 60.477 123.437 69.425 115.738 72.764Z" stroke="black" stroke-miterlimit="10" stroke-linecap="round" stroke-linejoin="round"/>
<path opacity="0.3" d="M133.655 53.463L137.595 51.754L133.567 42.467L129.035 44.432C127.359 42.216 125.563 40.565 123.61 39.26L125.35 34.425L115.783 30.561L113.97 35.124C111.167 34.662 108.125 34.689 105.402 35.194L103.654 31.165L94.986 34.924L96.734 38.953C93.266 41.133 91.945 42.937 90.366 45.3L85.535 43.558L81.673 53.124L86.431 55.384C86.049 57.701 85.977 60.164 86.45 62.901L81.559 65.022L85.587 74.309L89.887 72.444C91.706 75.333 93.981 77.45 96.743 79.296L94.837 83.748L104.321 87.42L106.532 82.571C109.335 83.033 111.536 83.257 115.498 82.215L117.543 86.93L126.211 83.171L124.166 78.456C126.396 76.813 128.516 74.662 130.095 72.3L134.706 74.137L138.458 64.619L133.977 63.148C134.517 59.87 134.521 56.765 133.655 53.463ZM115.738 72.764C108.039 76.103 99.092 72.569 95.753 64.87C92.414 57.171 95.948 48.224 103.647 44.885C111.346 41.546 120.293 45.08 123.632 52.779C126.971 60.477 123.437 69.425 115.738 72.764Z" fill="black"/>
<path d="M45.36 24.5551H81.36" stroke="black" stroke-miterlimit="10" stroke-linecap="round" stroke-linejoin="round"/>
<path d="M45.36 35.5551H70.36" stroke="black" stroke-miterlimit="10" stroke-linecap="round" stroke-linejoin="round"/>
</svg>
