<svg width="140" height="102" viewBox="0 0 140 102" fill="none" xmlns="http://www.w3.org/2000/svg">
<path fill-rule="evenodd" clip-rule="evenodd" d="M59.9563 15.3125L58.8484 14.2816L8.91464 68.0757L10.0226 69.1077L59.9563 15.3125Z" fill="#424242"/>
<path fill-rule="evenodd" clip-rule="evenodd" d="M13.3476 76.1274L12.9927 77.5952L57.5101 88.332L57.8656 86.8637L13.3476 76.1274Z" fill="#424242"/>
<path fill-rule="evenodd" clip-rule="evenodd" d="M125.117 37.6437L123.643 37.3117L117.954 62.2854L119.428 62.6168L125.117 37.6437Z" fill="#424242"/>
<path fill-rule="evenodd" clip-rule="evenodd" d="M77.4832 86.7833L78.0569 88.1789L110.721 73.4116L110.148 72.0165L77.4832 86.7833Z" fill="#424242"/>
<path fill-rule="evenodd" clip-rule="evenodd" d="M62.7027 81.0257L64.0256 80.2842L53.5617 61.7128L52.2388 62.4543L62.7027 81.0257Z" fill="#424242"/>
<path fill-rule="evenodd" clip-rule="evenodd" d="M55.5824 52.8665L56.1156 54.2824L116.839 31.3195L116.305 29.9031L55.5824 52.8665Z" fill="#424242"/>
<path fill-rule="evenodd" clip-rule="evenodd" d="M71.1875 9.6698L70.7785 11.1283L116.035 23.9411L116.443 22.4826L71.1875 9.6698Z" fill="#424242"/>
<path fill-rule="evenodd" clip-rule="evenodd" d="M68.9399 13.9775L67.7843 14.9554L109.982 64.8918L111.137 63.9134L68.9399 13.9775Z" fill="#424242"/>
<path fill-rule="evenodd" clip-rule="evenodd" d="M119.36 34.778L118.264 33.7351L73.1689 81.0569L74.2654 82.0998L119.36 34.778Z" fill="#424242"/>
<path fill-rule="evenodd" clip-rule="evenodd" d="M66.2454 15.9468H64.7251V79.9697H66.2454V15.9468Z" fill="#424242"/>
<path fill-rule="evenodd" clip-rule="evenodd" d="M60.4693 15.1446L58.9922 14.8006L50.7267 49.7089L52.2038 50.0528L60.4693 15.1446Z" fill="#424242"/>
<path fill-rule="evenodd" clip-rule="evenodd" d="M11.5949 69.508L12.1281 70.9238L43.6703 58.9964L43.1366 57.58L11.5949 69.508Z" fill="#424242"/>
<path d="M127.518 13.9294C130.965 13.9294 134.086 15.3272 136.344 17.5853C138.603 19.8444 140 22.9654 140 26.4113C140 29.8577 138.603 32.9788 136.344 35.2368C134.086 37.496 130.965 38.8938 127.518 38.8938C124.072 38.8938 120.951 37.496 118.693 35.2368C116.435 32.9788 115.037 29.8577 115.037 26.4113C115.037 22.9654 116.435 19.8444 118.693 17.5853C120.951 15.3272 124.072 13.9294 127.518 13.9294Z" fill="#FCB825"/>
<path d="M115.98 61.1479C118.169 61.1479 120.152 62.0355 121.586 63.4699C123.02 64.9044 123.908 66.8868 123.908 69.076C123.908 71.264 123.02 73.2465 121.586 74.6809C120.152 76.1159 118.169 77.0029 115.98 77.0029C113.791 77.0029 111.81 76.1159 110.375 74.6809C108.941 73.2465 108.053 71.264 108.053 69.076C108.053 66.8868 108.941 64.9044 110.375 63.4699C111.81 62.0355 113.791 61.1479 115.98 61.1479Z" fill="#7A943B"/>
<path d="M67.7532 78.9186C70.8228 78.9186 73.6004 80.1628 75.6118 82.1742C77.6232 84.1856 78.8673 86.9637 78.8673 90.0334C78.8673 93.1019 77.6232 95.8806 75.6118 97.8914C73.6004 99.9029 70.8228 101.146 67.7532 101.146C64.6846 101.146 61.9059 99.9029 59.8951 97.8914C57.8837 95.8806 56.6395 93.1019 56.6395 90.0334C56.6395 86.9637 57.8837 84.1856 59.8951 82.1742C61.9059 80.1628 64.6846 78.9186 67.7532 78.9186Z" fill="#3572B8"/>
<path d="M7.18651 67.3506C9.17004 67.3506 10.9671 68.1556 12.267 69.4555C13.5675 70.756 14.3725 72.553 14.3725 74.5366C14.3725 76.5206 13.568 78.3177 12.267 79.6176C10.9671 80.9181 9.17058 81.7231 7.18651 81.7231C5.20244 81.7231 3.4054 80.9181 2.10493 79.6176C0.805003 78.3177 0 76.5206 0 74.5366C0 72.553 0.805003 70.756 2.10493 69.4555C3.4054 68.1556 5.20244 67.3506 7.18651 67.3506Z" fill="#B21F17"/>
<path d="M64.0005 0.853027C66.1896 0.853027 68.171 1.74061 69.6054 3.17452C71.0404 4.60898 71.9275 6.59141 71.9275 8.78056C71.9275 10.9692 71.0404 12.951 69.6054 14.3855C68.171 15.82 66.1896 16.7075 64.0005 16.7075C61.8113 16.7075 59.8295 15.82 58.395 14.3855C56.9605 12.951 56.073 10.9692 56.073 8.78056C56.073 6.59141 56.9605 4.60898 58.395 3.17452C59.8295 1.74061 61.8113 0.853027 64.0005 0.853027Z" fill="#EB6D1D"/>
<path d="M49.5722 48.6151C51.6564 48.6151 53.5436 49.46 54.9097 50.8261C56.2758 52.1922 57.1213 54.0801 57.1213 56.1648C57.1213 58.2494 56.2758 60.1373 54.9097 61.5034C53.5436 62.8695 51.6564 63.7149 49.5722 63.7149C47.487 63.7149 45.5997 62.8695 44.2336 61.5034C42.8675 60.1373 42.022 58.2494 42.022 56.1648C42.022 54.0801 42.8675 52.1922 44.2336 50.8261C45.5997 49.46 47.487 48.6151 49.5722 48.6151Z" fill="#733D91"/>
</svg>
