<svg width="144" height="144" viewBox="0 0 144 144" fill="none" xmlns="http://www.w3.org/2000/svg">
<path d="M99.14 104.6V114.184C99.14 120.434 94.074 125.5 87.824 125.5H50.664C44.414 125.5 39.348 120.434 39.348 114.184V31.83C39.348 25.58 44.414 20.514 50.664 20.514H87.823C94.073 20.514 99.139 25.58 99.139 31.83V53.86" stroke="black" stroke-miterlimit="10" stroke-linecap="round" stroke-linejoin="round"/>
<path d="M39.348 32V31.83C39.348 25.58 44.414 20.514 50.664 20.514H87.823C94.073 20.514 99.139 25.58 99.139 31.83V32H39.348Z" stroke="black" stroke-miterlimit="10" stroke-linecap="round" stroke-linejoin="round"/>
<path opacity="0.3" d="M39.182 32V31.83C39.182 25.58 44.248 20.514 50.498 20.514H87.657C93.907 20.514 98.973 25.58 98.973 31.83V32H39.182Z" fill="black"/>
<path d="M99.14 114.015V114.185C99.14 120.435 94.074 125.501 87.824 125.501H50.664C44.414 125.501 39.348 120.435 39.348 114.185V114.015H99.14Z" stroke="black" stroke-miterlimit="10" stroke-linecap="round" stroke-linejoin="round"/>
<path opacity="0.3" d="M99.14 114.015V114.185C99.14 120.435 94.074 125.501 87.824 125.501H50.664C44.414 125.501 39.348 120.435 39.348 114.185V114.015H99.14Z" fill="black"/>
<path d="M63.943 120.374H74.545" stroke="black" stroke-miterlimit="10" stroke-linecap="round" stroke-linejoin="round"/>
<path d="M63.943 26.257H74.545" stroke="black" stroke-miterlimit="10" stroke-linecap="round" stroke-linejoin="round"/>
<path d="M9.528 50.525V61.655" stroke="black" stroke-miterlimit="10" stroke-linecap="round" stroke-linejoin="round"/>
<path d="M15.757 56.09H3.298" stroke="black" stroke-miterlimit="10" stroke-linecap="round" stroke-linejoin="round"/>
<path d="M23.194 77.815V85.274" stroke="black" stroke-miterlimit="10" stroke-linecap="round" stroke-linejoin="round"/>
<path d="M26.924 81.544H19.465" stroke="black" stroke-miterlimit="10" stroke-linecap="round" stroke-linejoin="round"/>
<path d="M135.544 73.38L139.484 71.671L135.456 62.384L130.924 64.349C129.248 62.133 127.452 60.482 125.499 59.177L127.239 54.342L117.672 50.478L115.859 55.041C113.056 54.579 110.014 54.606 107.291 55.111L105.543 51.082L96.875 54.841L98.623 58.87C95.155 61.05 93.834 62.854 92.255 65.217L87.424 63.475L83.562 73.041L88.32 75.301C87.938 77.618 87.866 80.081 88.339 82.818L83.448 84.939L87.476 94.226L91.776 92.361C93.595 95.25 95.87 97.367 98.632 99.213L96.726 103.665L106.21 107.337L108.421 102.488C111.224 102.95 113.425 103.174 117.387 102.132L119.432 106.847L128.1 103.088L126.055 98.373C128.285 96.73 130.405 94.579 131.984 92.217L136.595 94.054L140.347 84.536L135.866 83.065C136.407 79.787 136.411 76.682 135.544 73.38ZM117.738 92.764C110.039 96.103 101.092 92.569 97.753 84.87C94.414 77.171 97.948 68.224 105.647 64.885C113.346 61.546 122.293 65.08 125.632 72.779C128.971 80.477 125.437 89.425 117.738 92.764Z" stroke="black" stroke-miterlimit="10" stroke-linecap="round" stroke-linejoin="round"/>
<path opacity="0.3" d="M135.655 73.463L139.595 71.754L135.567 62.467L131.035 64.432C129.359 62.216 127.563 60.565 125.61 59.26L127.35 54.425L117.783 50.561L115.97 55.124C113.167 54.662 110.125 54.689 107.402 55.194L105.654 51.165L96.986 54.924L98.734 58.953C95.266 61.133 93.945 62.937 92.366 65.3L87.535 63.558L83.673 73.124L88.431 75.384C88.049 77.701 87.977 80.164 88.45 82.901L83.559 85.022L87.587 94.309L91.887 92.444C93.706 95.333 95.981 97.45 98.743 99.296L96.837 103.748L106.321 107.42L108.532 102.571C111.335 103.033 113.536 103.257 117.498 102.215L119.543 106.93L128.211 103.171L126.166 98.456C128.396 96.813 130.516 94.662 132.095 92.3L136.706 94.137L140.458 84.619L135.977 83.148C136.517 79.87 136.521 76.765 135.655 73.463ZM117.738 92.764C110.039 96.103 101.092 92.569 97.753 84.87C94.414 77.171 97.948 68.224 105.647 64.885C113.346 61.546 122.293 65.08 125.632 72.779C128.971 80.477 125.437 89.425 117.738 92.764Z" fill="black"/>
<path d="M47.36 44.555H83.36" stroke="black" stroke-miterlimit="10" stroke-linecap="round" stroke-linejoin="round"/>
<path d="M47.36 55.555H72.36" stroke="black" stroke-miterlimit="10" stroke-linecap="round" stroke-linejoin="round"/>
<path d="M125.445 28.457V39.587" stroke="black" stroke-miterlimit="10" stroke-linecap="round" stroke-linejoin="round"/>
<path d="M131.674 34.022H119.215" stroke="black" stroke-miterlimit="10" stroke-linecap="round" stroke-linejoin="round"/>
</svg>
