<svg width="113" height="92" viewBox="0 0 113 92" fill="none" xmlns="http://www.w3.org/2000/svg">
<path d="M9.59301 11.1541C10.7528 11.1541 11.693 10.2139 11.693 9.0541C11.693 7.8943 10.7528 6.9541 9.59301 6.9541C8.43321 6.9541 7.49301 7.8943 7.49301 9.0541C7.49301 10.2139 8.43321 11.1541 9.59301 11.1541Z" fill="black"/>
<path d="M23.6 11.1541C24.7598 11.1541 25.7 10.2139 25.7 9.0541C25.7 7.8943 24.7598 6.9541 23.6 6.9541C22.4402 6.9541 21.5 7.8943 21.5 9.0541C21.5 10.2139 22.4402 11.1541 23.6 11.1541Z" fill="black"/>
<path d="M16.607 11.1541C17.7668 11.1541 18.707 10.2139 18.707 9.0541C18.707 7.8943 17.7668 6.9541 16.607 6.9541C15.4472 6.9541 14.507 7.8943 14.507 9.0541C14.507 10.2139 15.4472 11.1541 16.607 11.1541Z" fill="black"/>
<path d="M32 39.5251L38.3 33.2251C38.6954 32.8296 38.9176 32.2933 38.9176 31.7341C38.9176 31.1749 38.6954 30.6385 38.3 30.2431C37.9046 29.8476 37.3682 29.6255 36.809 29.6255C36.2498 29.6255 35.7134 29.8476 35.318 30.2431L27.506 38.0761C27.1149 38.4695 26.8953 39.0018 26.8953 39.5566C26.8953 40.1114 27.1149 40.6436 27.506 41.0371L35.318 48.8701C35.5132 49.0669 35.7455 49.2231 36.0014 49.3298C36.2573 49.4364 36.5318 49.4913 36.809 49.4913C37.0862 49.4913 37.3607 49.4364 37.6166 49.3298C37.8725 49.2231 38.1048 49.0669 38.3 48.8701C38.6911 48.4766 38.9107 47.9444 38.9107 47.3896C38.9107 46.8348 38.6911 46.3025 38.3 45.9091L32 39.5251Z" fill="black"/>
<path d="M62.072 48.8281C62.4655 49.2192 62.9977 49.4388 63.5525 49.4388C64.1073 49.4388 64.6395 49.2192 65.033 48.8281L72.866 41.1001C73.2571 40.7066 73.4767 40.1744 73.4767 39.6196C73.4767 39.0648 73.2571 38.5326 72.866 38.1391L65.033 30.3061C64.6376 29.9135 64.1023 29.694 63.5451 29.6959C62.9878 29.6979 62.4542 29.9212 62.0615 30.3166C61.6688 30.712 61.4494 31.2473 61.4513 31.8045C61.4533 32.3618 61.6766 32.8955 62.072 33.2881L68.372 39.5881L62.072 45.8881C61.6872 46.2807 61.4717 46.8084 61.4717 47.3581C61.4717 47.9078 61.6872 48.4356 62.072 48.8281Z" fill="black"/>
<path d="M55.1 30.9151C54.8603 30.7762 54.5956 30.6862 54.3209 30.6501C54.0463 30.614 53.7672 30.6326 53.4998 30.7048C53.2324 30.7771 52.9819 30.9015 52.7628 31.0709C52.5437 31.2403 52.3602 31.4515 52.223 31.6921L44.474 45.3001C44.3221 45.5391 44.22 45.8064 44.1741 46.0859C44.1281 46.3653 44.1392 46.6512 44.2065 46.9263C44.2739 47.2014 44.3963 47.46 44.5662 47.6866C44.7361 47.9132 44.9501 48.1031 45.1953 48.2448C45.4405 48.3865 45.7119 48.4772 45.993 48.5114C46.2742 48.5455 46.5593 48.5224 46.8313 48.4435C47.1034 48.3646 47.3566 48.2315 47.5758 48.0522C47.795 47.8729 47.9757 47.6511 48.107 47.4001L55.94 33.8551C56.0865 33.609 56.1812 33.3356 56.2182 33.0516C56.2551 32.7676 56.2336 32.4791 56.1549 32.2037C56.0762 31.9283 55.9421 31.672 55.7607 31.4504C55.5792 31.2288 55.3544 31.0466 55.1 30.9151Z" fill="black"/>
<path d="M107.306 60.0001C107.182 59.9991 107.061 59.9604 106.96 59.8891C106.859 59.8178 106.782 59.7173 106.739 59.6011C105.903 57.4029 104.719 55.3537 103.232 53.5321C103.162 53.4302 103.124 53.3094 103.124 53.1856C103.124 53.0617 103.162 52.9409 103.232 52.8391C103.872 51.7305 104.045 50.4134 103.714 49.1771C103.384 47.9407 102.576 46.8862 101.468 46.2451L99.893 45.3001V6.95405C99.893 5.28319 99.2293 3.68076 98.0478 2.49928C96.8663 1.3178 95.2639 0.654053 93.593 0.654053H6.8C5.12914 0.654053 3.52671 1.3178 2.34523 2.49928C1.16375 3.68076 0.5 5.28319 0.5 6.95405V60.1681C0.505527 61.4641 1.02281 62.7054 1.93923 63.6218C2.85565 64.5382 4.097 65.0555 5.393 65.0611H34.1L32 72.8311H29.207C27.1616 72.8325 25.1764 73.5234 23.5722 74.7923C21.9679 76.0612 20.8384 77.8339 20.366 79.8241H15.2C14.643 79.8241 14.1089 80.0453 13.7151 80.4391C13.3213 80.833 13.1 81.3671 13.1 81.9241C13.1 82.481 13.3213 83.0152 13.7151 83.409C14.1089 83.8028 14.643 84.0241 15.2 84.0241H68.687C68.6514 84.5258 68.7011 85.0299 68.834 85.5151C68.9915 86.1311 69.2716 86.709 69.6577 87.2142C70.0438 87.7193 70.5279 88.1414 71.081 88.4551L75.512 91.0171C76.0622 91.3329 76.6691 91.5372 77.2983 91.6185C77.9274 91.6997 78.5664 91.6562 79.1787 91.4904C79.7911 91.3247 80.3648 91.0399 80.867 90.6524C81.3693 90.2649 81.7903 89.7823 82.106 89.2321C82.1741 89.1249 82.2719 89.04 82.3876 88.9878C82.5032 88.9356 82.6316 88.9183 82.757 88.9381C85.0639 89.3371 87.4221 89.3371 89.729 88.9381C89.8567 88.9174 89.9877 88.9365 90.1042 88.9928C90.2207 89.0492 90.317 89.1401 90.38 89.2531C90.808 89.9859 91.4216 90.5931 92.1589 91.0133C92.8963 91.4336 93.7313 91.6522 94.58 91.6471C95.4267 91.6553 96.2602 91.4378 96.995 91.0171L101.426 88.4551C101.976 88.1377 102.458 87.7144 102.844 87.2098C103.229 86.7052 103.511 86.1292 103.673 85.5151C103.84 84.9046 103.884 84.2668 103.801 83.6393C103.718 83.0117 103.51 82.4071 103.19 81.8611C103.118 81.756 103.079 81.6315 103.079 81.5041C103.079 81.3766 103.118 81.2521 103.19 81.1471C104.673 79.33 105.856 77.2884 106.697 75.0991C106.737 74.981 106.814 74.8788 106.915 74.8071C107.017 74.7354 107.139 74.6979 107.264 74.7001C108.543 74.6945 109.769 74.1839 110.673 73.2793C111.578 72.3747 112.088 71.1493 112.094 69.8701V64.7461C112.072 63.4869 111.559 62.2861 110.665 61.3995C109.771 60.513 108.565 60.0108 107.306 60.0001ZM4.7 6.95405C4.7 6.3971 4.92125 5.86296 5.31508 5.46913C5.7089 5.0753 6.24305 4.85405 6.8 4.85405H93.593C94.15 4.85405 94.6841 5.0753 95.0779 5.46913C95.4718 5.86296 95.693 6.3971 95.693 6.95405V13.2541H4.7V6.95405ZM5.393 60.8611C5.30199 60.8611 5.21188 60.8431 5.1278 60.8083C5.04372 60.7735 4.96733 60.7224 4.90298 60.6581C4.83862 60.5937 4.78758 60.5173 4.75275 60.4333C4.71793 60.3492 4.7 60.2591 4.7 60.1681V17.4541H95.693V43.2001C94.6993 42.9361 93.6471 42.9977 92.6909 43.3756C91.7347 43.7536 90.9248 44.428 90.38 45.3001C90.3146 45.4036 90.2195 45.4851 90.1071 45.5338C89.9948 45.5825 89.8703 45.5962 89.75 45.5731C87.4414 45.1949 85.0866 45.1949 82.778 45.5731C82.6576 45.5993 82.5321 45.587 82.419 45.5381C82.306 45.4891 82.2112 45.4058 82.148 45.3001C81.8326 44.7495 81.4113 44.2669 80.9084 43.8799C80.4056 43.4929 79.8312 43.2093 79.2182 43.0453C78.6053 42.8813 77.966 42.8403 77.3371 42.9245C76.7082 43.0087 76.1022 43.2166 75.554 43.5361L71.123 46.0981C70.5713 46.4084 70.088 46.8269 69.7019 47.3285C69.3158 47.83 69.0349 48.4044 68.876 49.0171C68.5402 50.2551 68.7062 51.5756 69.338 52.6921C69.4146 52.7913 69.4562 52.9132 69.4562 53.0386C69.4562 53.164 69.4146 53.2858 69.338 53.3851C67.8508 55.2067 66.6666 57.2559 65.831 59.4541C65.7883 59.5703 65.7111 59.6708 65.6098 59.7421C65.5085 59.8134 65.3879 59.8521 65.264 59.8531C64.2354 59.8545 63.2344 60.1857 62.408 60.7981L5.393 60.8611ZM61.4 72.8311H36.2L38.3 65.0611H60.35V69.8701C60.3634 70.9459 60.7326 71.9871 61.4 72.8311ZM29.228 77.0311H66.608C67.088 77.9992 67.6353 78.9325 68.246 79.8241H24.797C25.1935 78.9897 25.818 78.2846 26.5984 77.7903C27.3789 77.2961 28.2832 77.0328 29.207 77.0311H29.228ZM107.936 69.8701C107.936 70.0371 107.87 70.1974 107.751 70.3155C107.633 70.4337 107.473 70.5001 107.306 70.5001C106.328 70.5025 105.373 70.8006 104.567 71.3552C103.762 71.9099 103.142 72.6952 102.791 73.6081C102.12 75.3786 101.17 77.0304 99.977 78.5011C99.362 79.2608 98.9908 80.1886 98.9121 81.1629C98.8334 82.1372 99.0509 83.1125 99.536 83.9611C99.5698 84.0334 99.5873 84.1122 99.5873 84.1921C99.5873 84.2719 99.5698 84.3507 99.536 84.4231C99.5177 84.5065 99.4821 84.5851 99.4314 84.6538C99.3808 84.7226 99.3162 84.7799 99.242 84.8221L94.874 87.3001C94.8011 87.3406 94.7208 87.3663 94.6378 87.3756C94.5549 87.3849 94.4709 87.3776 94.3908 87.3541C94.3107 87.3307 94.236 87.2915 94.1712 87.239C94.1063 87.1865 94.0526 87.1216 94.013 87.0481C93.5165 86.2018 92.775 85.5259 91.8864 85.1098C90.9979 84.6936 90.004 84.5567 89.036 84.7171C87.1873 85.032 85.2987 85.032 83.45 84.7171C82.4798 84.5586 81.4844 84.6987 80.5956 85.1187C79.7068 85.5388 78.9666 86.2189 78.473 87.0691C78.3858 87.2099 78.2482 87.3121 78.0882 87.355C77.9283 87.398 77.758 87.3783 77.612 87.3001L73.181 84.7381C73.1068 84.6959 73.0422 84.6386 72.9916 84.5698C72.9409 84.5011 72.9053 84.4225 72.887 84.3391C72.8532 84.2667 72.8357 84.1879 72.8357 84.1081C72.8357 84.0282 72.8532 83.9494 72.887 83.8771C73.3665 83.0268 73.5807 82.0525 73.5022 81.0796C73.4236 80.1066 73.0558 79.1793 72.446 78.4171C71.2425 76.9502 70.2851 75.2977 69.611 73.5241C69.2588 72.6352 68.6485 71.8722 67.8588 71.3332C67.0691 70.7943 66.1361 70.5041 65.18 70.5001C65.0129 70.5001 64.8527 70.4337 64.7345 70.3155C64.6164 70.1974 64.55 70.0371 64.55 69.8701V64.7461C64.5471 64.6625 64.5614 64.5793 64.592 64.5015C64.6226 64.4238 64.6689 64.3532 64.728 64.2941C64.7871 64.235 64.8577 64.1887 64.9355 64.158C65.0132 64.1274 65.0965 64.1131 65.18 64.1161C66.1553 64.1123 67.1066 63.8134 67.9087 63.2586C68.7109 62.7039 69.3263 61.9193 69.674 61.0081C70.3433 59.2321 71.3011 57.5789 72.509 56.1151C73.1188 55.3528 73.4866 54.4255 73.5652 53.4526C73.6438 52.4796 73.4295 51.5053 72.95 50.6551C72.9158 50.5791 72.8981 50.4968 72.8981 50.4136C72.8981 50.3303 72.9158 50.248 72.95 50.1721C72.9671 50.0909 73.0024 50.0146 73.0534 49.9491C73.1043 49.8836 73.1695 49.8306 73.244 49.7941L77.675 47.2321C77.7781 47.2034 77.887 47.2034 77.99 47.2321C78.0951 47.2334 78.1982 47.261 78.2899 47.3123C78.3816 47.3637 78.459 47.4372 78.515 47.5261C79.0108 48.3742 79.7513 49.0526 80.6395 49.4723C81.5277 49.8921 82.522 50.0335 83.492 49.8781C85.3407 49.5631 87.2293 49.5631 89.078 49.8781C90.0544 50.0099 91.048 49.8439 91.9285 49.4018C92.809 48.9596 93.5356 48.262 94.013 47.4001C94.0541 47.3308 94.1085 47.2704 94.173 47.2222C94.2376 47.1741 94.3111 47.1393 94.3892 47.1198C94.4673 47.1002 94.5485 47.0964 94.6281 47.1085C94.7077 47.1205 94.7842 47.1483 94.853 47.1901L99.284 49.7521C99.3585 49.7886 99.4237 49.8416 99.4747 49.9071C99.5256 49.9726 99.5609 50.0489 99.578 50.1301C99.6122 50.206 99.6299 50.2883 99.6299 50.3716C99.6299 50.4548 99.6122 50.5371 99.578 50.6131C99.0947 51.4584 98.8781 52.4302 98.9568 53.4008C99.0355 54.3714 99.4058 55.2956 100.019 56.0521C101.212 57.5301 102.162 59.1889 102.833 60.9661C103.164 61.8942 103.769 62.7002 104.567 63.2776C105.366 63.855 106.321 64.1766 107.306 64.2001C107.39 64.1971 107.473 64.2114 107.551 64.242C107.628 64.2727 107.699 64.319 107.758 64.3781C107.817 64.4371 107.863 64.5078 107.894 64.5855C107.925 64.6633 107.939 64.7465 107.936 64.8301V69.8701Z" fill="black"/>
<path d="M86.243 57.774C84.3573 57.774 82.514 58.3332 80.9462 59.3808C79.3783 60.4284 78.1563 61.9174 77.4347 63.6596C76.7131 65.4017 76.5243 67.3186 76.8922 69.168C77.2601 71.0175 78.1681 72.7163 79.5014 74.0496C80.8348 75.383 82.5336 76.291 84.383 76.6589C86.2324 77.0267 88.1494 76.8379 89.8915 76.1163C91.6336 75.3947 93.1226 74.1727 94.1702 72.6049C95.2178 71.037 95.777 69.1937 95.777 67.3081C95.777 64.7795 94.7725 62.3545 92.9845 60.5665C91.1966 58.7785 88.7716 57.774 86.243 57.774ZM86.243 72.6421C85.188 72.6421 84.1567 72.3292 83.2796 71.7431C82.4024 71.157 81.7187 70.3239 81.315 69.3493C80.9113 68.3746 80.8057 67.3021 81.0115 66.2674C81.2173 65.2327 81.7253 64.2823 82.4713 63.5363C83.2173 62.7904 84.1677 62.2824 85.2024 62.0765C86.2371 61.8707 87.3096 61.9764 88.2842 62.3801C89.2589 62.7838 90.0919 63.4675 90.678 64.3446C91.2642 65.2218 91.577 66.2531 91.577 67.3081C91.5659 68.7154 90.999 70.0614 89.9999 71.0526C89.0008 72.0439 87.6504 72.6001 86.243 72.6001V72.6421Z" fill="black"/>
</svg>
