<svg width="90" height="120" viewBox="0 0 90 120" fill="none" xmlns="http://www.w3.org/2000/svg">
<path d="M89.0015 35.2922C88.657 33.3726 88.2633 31.7484 87.8695 30.5672C81.7664 12.4547 64.8844 0.149976 45.8367 0.00231934H44.1141C25.0664 0.149976 8.18437 12.4547 2.08125 30.5672C1.6875 31.7484 1.29375 33.3726 0.949219 35.2922C-0.379687 42.8719 0.457033 50.5008 3.36094 57.2437C3.45938 57.4406 3.55781 57.6867 3.70547 58.0312C6.06797 63.2484 9.5625 69.3023 12.9586 75.1593C15.8625 80.2289 18.8648 85.4461 21.0305 89.8758C21.6211 91.057 23.0484 91.5492 24.2297 90.9586C25.4109 90.3679 25.9031 88.9406 25.3125 87.7593C23.0977 83.1328 20.0461 77.8664 17.093 72.7476C13.7953 66.989 10.35 61.0336 8.08594 56.0133L7.79063 55.4226C5.18203 49.4179 4.44375 42.7242 5.625 36.0797C5.92031 34.357 6.21563 33.0281 6.56016 32.0437C12.0234 15.8508 27.0844 4.87498 44.0648 4.72732H45.7383C62.7187 4.87498 77.8289 15.8508 83.2922 32.0437C83.6367 33.0281 83.932 34.357 84.2273 36.0797C85.4086 42.7242 84.6703 49.4179 82.0617 55.3734C82.0125 55.5211 81.9141 55.6687 81.8648 55.8164L81.7664 56.0133C79.4531 61.0336 76.057 66.989 72.7594 72.7476C69.8062 77.8664 66.8039 83.1328 64.5398 87.7593C63.9492 88.9406 64.4414 90.3679 65.6226 90.9586C65.9672 91.1062 66.3117 91.2047 66.6562 91.2047C67.5422 91.2047 68.3789 90.7125 68.8219 89.8758C70.9875 85.3968 73.9898 80.1797 76.8937 75.1593C80.2406 69.3023 83.7352 63.2484 86.1469 57.982L86.4422 57.3422C89.4937 50.5008 90.3305 42.8719 89.0015 35.2922Z" fill="black"/>
<path d="M62.3742 96.668H27.675C26.4938 96.668 25.4109 97.2094 24.6234 98.0953C23.8852 98.9812 23.5898 100.163 23.7867 101.344L25.4602 110.105C25.8047 111.975 27.4289 113.304 29.3484 113.304H32.0062C35.0086 117.488 39.8813 119.998 45.0492 119.998C50.2172 119.998 55.0898 117.438 58.0922 113.304H60.75C62.6203 113.304 64.2445 111.975 64.6383 110.105L66.3117 101.344C66.5086 100.212 66.2133 99.0305 65.475 98.0953C64.6383 97.1602 63.5063 96.668 62.3742 96.668ZM60.0117 108.53H56.7633C55.9266 108.53 55.1391 108.973 54.6961 109.711C52.6781 113.107 48.9867 115.273 45 115.273C41.0625 115.273 37.3219 113.156 35.3039 109.711C34.8609 108.973 34.0734 108.53 33.2367 108.53H29.9883L28.6594 101.442H61.3406L60.0117 108.53Z" fill="black"/>
<path d="M40.8656 49.7625C41.3578 50.2547 41.9484 50.5008 42.5883 50.5008C43.1789 50.5008 43.7695 50.3039 44.2125 49.8609L53.5641 40.9523C54.4992 40.0664 54.5484 38.5406 53.6625 37.6054C52.7766 36.6703 51.2508 36.6211 50.2664 37.507L42.6375 44.7422L39.7828 41.789C38.8477 40.8539 37.3711 40.8047 36.3867 41.7398C35.4516 42.675 35.4023 44.1515 36.3375 45.1359L40.8656 49.7625Z" fill="black"/>
<path d="M25.1648 55.1273C24.3281 55.964 24.2297 57.2437 24.9187 58.2281C26.4937 60.3937 28.4133 62.3132 30.5789 63.8882C31.5141 64.5773 32.6461 64.5773 33.4828 63.7898C33.5813 63.6914 33.6797 63.6421 33.7781 63.5437C34.1719 63.15 34.5656 62.707 35.0086 62.3132C35.0578 62.264 35.107 62.2148 35.1563 62.1656C36.3867 62.8546 37.7156 63.3468 39.0445 63.7898C39.0445 63.9375 39.0445 64.0359 39.0445 64.1836C39.0445 64.725 39.0445 65.2171 39.0445 65.857C39.0445 67.0382 39.8813 68.0226 41.0625 68.2195C42.3422 68.4164 43.6219 68.5148 45.0492 68.5148C46.3781 68.5148 47.707 68.4164 48.9867 68.2195C50.168 68.0226 51.0047 66.9398 51.0047 65.7586C51.0047 65.2171 51.0047 64.725 51.0047 64.1836C51.0047 64.0359 51.0047 63.9375 51.0047 63.7898C52.3336 63.3961 53.6625 62.8546 54.893 62.1656L54.9422 62.2148C55.3852 62.6578 55.8281 63.1007 56.2711 63.5437L56.3203 63.5929C56.6156 63.9375 57.0586 64.1343 57.5016 64.282C58.1906 64.4296 58.8797 64.282 59.4703 63.8882C61.6852 62.3132 63.5555 60.3937 65.1305 58.2281C65.8195 57.2929 65.7211 55.964 64.8844 55.1273L64.0969 54.2906C63.8508 54.0445 63.6539 53.8476 63.457 53.6015C64.1461 52.3711 64.6875 51.0421 65.0813 49.664H67.05C67.2961 49.664 67.6898 49.6148 67.9359 49.5164C68.7727 49.2211 69.4125 48.532 69.5602 47.6461C69.8062 46.3172 69.9047 44.9882 69.9047 43.6101C69.9047 42.3304 69.8062 40.9523 69.5602 39.5742C69.3633 38.4422 68.3789 37.5562 67.1977 37.5562H66.2625C65.8687 37.5562 65.475 37.5562 65.0813 37.5562C64.6875 36.2273 64.1461 34.9476 63.457 33.7172C63.9492 33.225 64.4414 32.7328 64.9336 32.2898C65.7703 31.4531 65.918 30.1242 65.2289 29.189C63.6539 26.9742 61.7344 25.1039 59.5195 23.4797C58.5844 22.7906 57.2555 22.889 56.4188 23.775C56.025 24.1687 55.582 24.6117 55.1883 25.0054C55.0898 25.1039 55.0406 25.1531 54.9422 25.2515C53.7117 24.5625 52.3828 24.0703 51.0539 23.6273V23.5781C51.0539 23.4797 51.0539 23.4304 51.0539 23.332V22.6922C51.0539 22.3476 51.0539 22.0031 51.0539 21.5109C51.0539 20.3297 50.2172 19.3453 49.0359 19.1484C46.3781 18.7547 43.8187 18.7547 41.1609 19.1484C39.9797 19.3453 39.0938 20.4281 39.143 21.6586C39.143 22.0031 39.143 22.3476 39.143 22.6922V23.6273C37.8141 24.0211 36.4852 24.5625 35.2547 25.2023C35.2055 25.1531 35.107 25.0547 35.0578 25.0054C34.6148 24.6117 34.2211 24.1687 33.8273 23.775C32.9906 22.9382 31.6617 22.7906 30.7266 23.4797C28.5117 25.0547 26.5922 26.9742 25.0172 29.189C24.3281 30.1734 24.4266 31.4531 25.3125 32.2898C25.8047 32.782 26.2969 33.225 26.7891 33.7172C26.1 34.9476 25.6078 36.2273 25.1648 37.5562C24.7711 37.5562 24.3773 37.5562 23.9836 37.5562H23.0484C21.8672 37.5562 20.8828 38.3929 20.6859 39.525C20.4398 40.8539 20.3414 42.1828 20.3414 43.6101C20.3414 44.939 20.4398 46.2679 20.6859 47.5968C20.8336 48.532 21.5719 49.3195 22.4578 49.5164C22.6547 49.5656 22.9992 49.5656 23.1961 49.6148H25.1156C25.5094 50.9929 26.1 52.3218 26.7398 53.5523C26.543 53.7492 26.3461 53.9461 26.1492 54.1429L25.1648 55.1273ZM25.0172 44.939C24.968 44.5453 24.968 44.1023 24.968 43.7086C24.968 43.2656 24.968 42.8718 25.0172 42.4289C25.5094 42.4289 25.9523 42.4289 26.4938 42.4781C26.8383 42.4781 27.1828 42.4289 27.4781 42.3796C28.3641 42.1336 29.0531 41.4445 29.2008 40.5586C29.5945 38.4914 30.4312 36.5718 31.5633 34.8492C32.0555 34.0617 32.1047 33.0773 31.6125 32.2898C31.3664 31.8961 31.1203 31.65 30.825 31.3547C30.5297 31.0593 30.2836 30.8132 29.9883 30.5179C30.5297 29.8781 31.1203 29.2875 31.7602 28.7461C32.1047 29.0906 32.4 29.3859 32.6953 29.6812C33.0891 30.1242 33.4828 30.4195 33.975 30.5671C34.6641 30.8132 35.4516 30.764 36.0914 30.3211C37.8633 29.1398 39.832 28.3523 41.85 27.9586C42.6375 27.8109 43.2773 27.2695 43.6219 26.5312C43.8187 26.039 43.8188 25.5961 43.8188 25.3007C43.8188 25.0054 43.8188 24.7101 43.8188 24.464V23.8734C44.6063 23.8242 45.3937 23.8242 46.1812 23.8734V24.2179C46.1812 24.5625 46.1812 24.907 46.1812 25.3007C46.132 25.7437 46.2305 26.1867 46.3781 26.6297C46.6734 27.3679 47.3133 27.9093 48.15 28.057C50.168 28.4507 52.1367 29.2382 53.9086 30.4195C54.4992 30.8132 55.2867 30.9117 55.9758 30.7148C56.468 30.5672 56.9109 30.2226 57.2555 29.8781C57.6 29.5336 57.8953 29.189 58.2398 28.8937C58.8797 29.4351 59.4703 30.0257 60.0117 30.6656C59.7164 30.9609 59.4703 31.207 59.2242 31.5023C58.9289 31.7484 58.6336 32.0437 58.3875 32.4375C57.8953 33.225 57.9445 34.2093 58.4367 34.9968C59.618 36.7195 60.4055 38.639 60.7992 40.7062C60.9961 41.5922 61.6359 42.3304 62.5219 42.5273C62.8172 42.6257 63.1617 42.675 63.6047 42.6257C64.0477 42.6257 64.4906 42.5765 64.9828 42.5765C65.032 43.0195 65.032 43.4132 65.032 43.8562C65.032 44.2992 65.032 44.6929 64.9828 45.0867H63.2602C62.9156 45.0867 62.4727 45.1851 62.1281 45.3328C61.4391 45.6281 60.9469 46.2679 60.7992 47.0062C60.3563 49.1226 59.5687 51.0422 58.3875 52.814C57.8461 53.6015 57.8461 54.5859 58.3383 55.4226C58.5352 55.7179 58.732 55.9148 58.8797 56.0625C59.2242 56.407 59.618 56.7515 59.9625 57.1453C59.4211 57.7359 58.8305 58.3265 58.2398 58.8679C57.8953 58.5234 57.5016 58.1297 57.1078 57.7359C56.9109 57.539 56.6648 57.3422 56.468 57.1945C55.6805 56.7023 54.6961 56.7515 53.9086 57.2437C52.1367 58.425 50.2172 59.2125 48.15 59.6062C47.2641 59.7539 46.575 60.4429 46.3289 61.2797C46.2305 61.6734 46.1813 62.0672 46.2305 62.3625C46.2305 62.8547 46.2305 63.2976 46.2305 63.7898C45.443 63.839 44.6555 63.839 43.868 63.7898C43.868 63.2976 43.868 62.8054 43.868 62.264C43.868 62.0672 43.868 61.6734 43.7695 61.2797C43.5234 60.4429 42.8344 59.8031 41.9484 59.6062C39.8813 59.2125 37.9125 58.425 36.1898 57.2437C35.4023 56.7515 34.418 56.7023 33.6305 57.1945C33.3844 57.3422 33.1875 57.4898 32.9414 57.7359C32.5969 58.1297 32.2031 58.4742 31.8586 58.8187C31.2188 58.2773 30.6773 57.6867 30.1359 57.0961C30.4805 56.7515 30.8742 56.3578 31.268 55.964C31.3664 55.8656 31.6125 55.6195 31.7602 55.3242C32.2031 54.5367 32.2031 53.5523 31.6617 52.7648C30.4805 50.9929 29.6438 49.0242 29.25 46.957C29.1023 46.1203 28.4625 45.4312 27.675 45.1851C27.4289 45.0867 27.1336 45.0867 26.7891 45.0375L25.0172 44.939Z" fill="black"/>
</svg>
