<svg width="90" height="90" viewBox="0 0 90 90" fill="none" xmlns="http://www.w3.org/2000/svg">
<rect width="90" height="90" fill="#F5F5F5"/>
<g id="Index" clip-path="url(#clip0_0_1)">
<rect width="1728" height="5000" transform="translate(-418 -1890)" fill="white"/>
<rect id="Rectangle 4" x="-418" y="-1085" width="1728" height="1503" fill="#F7F7F7"/>
<g id="Group 7">
<rect id="Rectangle 10" x="-136" y="-71" width="363" height="371" rx="10" fill="white"/>
<g id="Frame">
<g id="Layer_1">
<g id="Group">
<path id="Vector" d="M18.5625 28.7227C23.8359 28.7227 28.1602 24.4336 28.1602 19.125C28.1602 13.8164 23.8711 9.52734 18.5625 9.52734C13.2539 9.52734 9 13.8516 9 19.125C9 24.3984 13.2891 28.7227 18.5625 28.7227ZM18.5625 13.1836C21.832 13.1836 24.5391 15.8555 24.5391 19.1602C24.5391 22.4648 21.8672 25.1367 18.5625 25.1367C15.2578 25.1367 12.5859 22.4648 12.5859 19.1602C12.5859 15.8555 15.293 13.1836 18.5625 13.1836Z" fill="black"/>
<path id="Vector_2" d="M29.918 39.832C28.9336 39.7617 28.0547 40.5351 27.9844 41.5195L26.5078 62.5781C26.5078 62.6484 26.4727 62.6836 26.4727 62.7539L25.1367 83.25C25.1016 84.0234 24.4336 84.6562 23.6602 84.6562H13.4648C12.6914 84.6562 12.0234 84.0586 11.9883 83.25L10.6523 62.7539C10.6172 62.0156 10.0898 61.3476 9.38672 61.1367C9 61.0312 7.875 60.6797 7.69922 60.5039C7.55859 60.2929 7.48828 59.1679 7.45313 58.6054L6.22266 36.8789V36.8437C8.50781 36.1757 10.7578 35.4375 13.043 34.6992C14.0625 35.8945 15.082 37.0547 16.1367 38.25L17.2266 39.4804C17.5781 39.8672 18.0703 40.1132 18.5977 40.1132C19.125 40.1132 19.6172 39.9023 19.9688 39.4804L21.2344 38.039C22.2539 36.8789 23.2031 35.789 24.1523 34.664L39.9023 38.2148C40.1484 38.2851 40.4297 38.2851 40.6758 38.2148L54.8789 35.2968C55.8633 35.0859 56.4961 34.1367 56.2852 33.1523C56.0742 32.1679 55.125 31.5351 54.1406 31.7461L40.3242 34.5937L24.7852 31.0781C24.7148 31.0429 24.6094 31.0429 24.5391 31.0429C24.082 31.0078 22.5352 30.9726 21.5859 32.0976C20.6016 33.2578 19.6172 34.3828 18.5977 35.5429C17.5781 34.3828 16.5938 33.2578 15.6094 32.0976C14.6953 31.0429 13.5352 30.6914 12.2695 31.1132C9.84375 31.9218 7.41797 32.6953 4.99219 33.4336C3.44531 33.9257 2.60156 35.0859 2.60156 36.6679C2.60156 36.7734 2.60156 37.0547 2.60156 37.0898L3.79688 58.5351L3.83203 58.8867C4.04297 62.0156 4.5 63.2109 7.13672 64.2304L8.40234 83.5312C8.57812 86.2031 10.8281 88.3125 13.5 88.3125H23.6953C26.3672 88.3125 28.6172 86.2031 28.793 83.5312L30.1289 63.2109C30.1289 63.1406 30.1289 63.1054 30.1641 63.0351L31.6406 41.8007C31.6406 40.7812 30.9023 39.9023 29.918 39.832Z" fill="black"/>
<path id="Vector_3" d="M85.6055 1.6875H18.5625C17.5781 1.6875 16.7344 2.49609 16.7344 3.51562C16.7344 4.53516 17.543 5.34375 18.5625 5.34375H83.7774V52.4531H35.6836C34.6992 52.4531 33.8555 53.2617 33.8555 54.2812C33.8555 55.2656 34.6641 56.1094 35.6836 56.1094H85.6055C86.5898 56.1094 87.4336 55.3008 87.4336 54.2812V3.51562C87.4336 2.53125 86.625 1.6875 85.6055 1.6875Z" fill="black"/>
</g>
</g>
</g>
</g>
</g>
<defs>
<clipPath id="clip0_0_1">
<rect width="1728" height="5000" fill="white" transform="translate(-418 -1890)"/>
</clipPath>
</defs>
</svg>
